<svg xmlns="http://www.w3.org/2000/svg" viewBox="0 0 128 128">
  <rect width="128" height="128" rx="28" fill="#F5F0E8"/>
  <circle cx="67" cy="70" r="35" fill="#B99A82"/>
  <g fill="none" stroke="#14373D" stroke-width="7" stroke-linecap="round" stroke-linejoin="round">
    <path d="M42 31c0-14 11-25 25-25s25 11 25 25c0 18-25 40-25 40S42 49 42 31z" fill="#D9FFF8"/>
    <circle cx="67" cy="31" r="8" fill="#F5F0E8"/>
    <path d="M27 72h43"/>
    <path d="M28 71V47h26c7 0 12 5 12 12v12"/>
    <path d="M66 55h14l13 16"/>
    <circle cx="39" cy="79" r="7" fill="#F5F0E8"/>
    <circle cx="65" cy="79" r="7" fill="#F5F0E8"/>
    <path d="M74 56l22-21 11 11 12-11-5-5 20 2-1 20-6-6-22 21c-6 5-12 5-18 0l-5-5-10 10"/>
    <path d="M72 92h18"/>
    <path d="M81 92v-17"/>
    <rect x="60" y="89" width="16" height="16" rx="4" fill="#D9FFF8"/>
    <rect x="86" y="89" width="16" height="16" rx="4" fill="#F5F0E8"/>
  </g>
</svg>
